<mxfile host="app.diagrams.net" agent="Mozilla/5.0 (Windows NT 10.0; Win64; x64) AppleWebKit/537.36 (KHTML, like Gecko) Chrome/132.0.0.0 Safari/537.36" version="26.0.11">
  <diagram id="C5RBs43oDa-KdzZeNtuy" name="Page-1">
    <mxGraphModel dx="1947" dy="1613" grid="1" gridSize="10" guides="1" tooltips="1" connect="1" arrows="1" fold="1" page="1" pageScale="1" pageWidth="827" pageHeight="1169" math="0" shadow="0">
      <root>
        <mxCell id="WIyWlLk6GJQsqaUBKTNV-0" />
        <mxCell id="WIyWlLk6GJQsqaUBKTNV-1" parent="WIyWlLk6GJQsqaUBKTNV-0" />
        <mxCell id="n9qM-8yhjH1g4-WMNaWI-0" value="Answer" style="swimlane;fontStyle=2;align=center;verticalAlign=top;childLayout=stackLayout;horizontal=1;startSize=26;horizontalStack=0;resizeParent=1;resizeLast=0;collapsible=1;marginBottom=0;rounded=0;shadow=0;strokeWidth=1;" vertex="1" parent="WIyWlLk6GJQsqaUBKTNV-1">
          <mxGeometry x="-130" y="-350" width="250" height="168" as="geometry">
            <mxRectangle x="230" y="140" width="160" height="26" as="alternateBounds" />
          </mxGeometry>
        </mxCell>
        <mxCell id="n9qM-8yhjH1g4-WMNaWI-1" value="&lt;&lt;property&gt;&gt; AnswerId: int" style="text;align=left;verticalAlign=top;spacingLeft=4;spacingRight=4;overflow=hidden;rotatable=0;points=[[0,0.5],[1,0.5]];portConstraint=eastwest;" vertex="1" parent="n9qM-8yhjH1g4-WMNaWI-0">
          <mxGeometry y="26" width="250" height="26" as="geometry" />
        </mxCell>
        <mxCell id="n9qM-8yhjH1g4-WMNaWI-2" value="&lt;&lt;property&gt;&gt; AnswerText:string" style="text;align=left;verticalAlign=top;spacingLeft=4;spacingRight=4;overflow=hidden;rotatable=0;points=[[0,0.5],[1,0.5]];portConstraint=eastwest;rounded=0;shadow=0;html=0;" vertex="1" parent="n9qM-8yhjH1g4-WMNaWI-0">
          <mxGeometry y="52" width="250" height="26" as="geometry" />
        </mxCell>
        <mxCell id="n9qM-8yhjH1g4-WMNaWI-4" value="" style="line;html=1;strokeWidth=1;align=left;verticalAlign=middle;spacingTop=-1;spacingLeft=3;spacingRight=3;rotatable=0;labelPosition=right;points=[];portConstraint=eastwest;" vertex="1" parent="n9qM-8yhjH1g4-WMNaWI-0">
          <mxGeometry y="78" width="250" height="8" as="geometry" />
        </mxCell>
        <mxCell id="n9qM-8yhjH1g4-WMNaWI-5" value="+ Answer(int answerId, string? answerText)" style="text;align=left;verticalAlign=top;spacingLeft=4;spacingRight=4;overflow=hidden;rotatable=0;points=[[0,0.5],[1,0.5]];portConstraint=eastwest;" vertex="1" parent="n9qM-8yhjH1g4-WMNaWI-0">
          <mxGeometry y="86" width="250" height="26" as="geometry" />
        </mxCell>
        <mxCell id="n9qM-8yhjH1g4-WMNaWI-8" value="+ Answer()" style="text;align=left;verticalAlign=top;spacingLeft=4;spacingRight=4;overflow=hidden;rotatable=0;points=[[0,0.5],[1,0.5]];portConstraint=eastwest;" vertex="1" parent="n9qM-8yhjH1g4-WMNaWI-0">
          <mxGeometry y="112" width="250" height="26" as="geometry" />
        </mxCell>
        <mxCell id="n9qM-8yhjH1g4-WMNaWI-16" value="Exam" style="swimlane;fontStyle=2;align=center;verticalAlign=top;childLayout=stackLayout;horizontal=1;startSize=26;horizontalStack=0;resizeParent=1;resizeLast=0;collapsible=1;marginBottom=0;rounded=0;shadow=0;strokeWidth=1;" vertex="1" parent="WIyWlLk6GJQsqaUBKTNV-1">
          <mxGeometry x="190" y="-350" width="280" height="210" as="geometry">
            <mxRectangle x="230" y="140" width="160" height="26" as="alternateBounds" />
          </mxGeometry>
        </mxCell>
        <mxCell id="n9qM-8yhjH1g4-WMNaWI-17" value="&lt;&lt;property&gt;&gt; ExamTime: int" style="text;align=left;verticalAlign=top;spacingLeft=4;spacingRight=4;overflow=hidden;rotatable=0;points=[[0,0.5],[1,0.5]];portConstraint=eastwest;" vertex="1" parent="n9qM-8yhjH1g4-WMNaWI-16">
          <mxGeometry y="26" width="280" height="26" as="geometry" />
        </mxCell>
        <mxCell id="n9qM-8yhjH1g4-WMNaWI-18" value="&lt;&lt;property&gt;&gt; NumOfQuestion:int" style="text;align=left;verticalAlign=top;spacingLeft=4;spacingRight=4;overflow=hidden;rotatable=0;points=[[0,0.5],[1,0.5]];portConstraint=eastwest;rounded=0;shadow=0;html=0;" vertex="1" parent="n9qM-8yhjH1g4-WMNaWI-16">
          <mxGeometry y="52" width="280" height="26" as="geometry" />
        </mxCell>
        <mxCell id="n9qM-8yhjH1g4-WMNaWI-22" value="&lt;&lt;property&gt;&gt; Questions:Question[ ]" style="text;align=left;verticalAlign=top;spacingLeft=4;spacingRight=4;overflow=hidden;rotatable=0;points=[[0,0.5],[1,0.5]];portConstraint=eastwest;rounded=0;shadow=0;html=0;" vertex="1" parent="n9qM-8yhjH1g4-WMNaWI-16">
          <mxGeometry y="78" width="280" height="26" as="geometry" />
        </mxCell>
        <mxCell id="n9qM-8yhjH1g4-WMNaWI-19" value="" style="line;html=1;strokeWidth=1;align=left;verticalAlign=middle;spacingTop=-1;spacingLeft=3;spacingRight=3;rotatable=0;labelPosition=right;points=[];portConstraint=eastwest;" vertex="1" parent="n9qM-8yhjH1g4-WMNaWI-16">
          <mxGeometry y="104" width="280" height="8" as="geometry" />
        </mxCell>
        <mxCell id="n9qM-8yhjH1g4-WMNaWI-20" value="+ Exam(int examTime, int numOfQuestion)" style="text;align=left;verticalAlign=top;spacingLeft=4;spacingRight=4;overflow=hidden;rotatable=0;points=[[0,0.5],[1,0.5]];portConstraint=eastwest;" vertex="1" parent="n9qM-8yhjH1g4-WMNaWI-16">
          <mxGeometry y="112" width="280" height="26" as="geometry" />
        </mxCell>
        <mxCell id="n9qM-8yhjH1g4-WMNaWI-21" value="+ abstract ShowExam()" style="text;align=left;verticalAlign=top;spacingLeft=4;spacingRight=4;overflow=hidden;rotatable=0;points=[[0,0.5],[1,0.5]];portConstraint=eastwest;" vertex="1" parent="n9qM-8yhjH1g4-WMNaWI-16">
          <mxGeometry y="138" width="280" height="26" as="geometry" />
        </mxCell>
        <mxCell id="n9qM-8yhjH1g4-WMNaWI-23" value="+ abstract Add()" style="text;align=left;verticalAlign=top;spacingLeft=4;spacingRight=4;overflow=hidden;rotatable=0;points=[[0,0.5],[1,0.5]];portConstraint=eastwest;" vertex="1" parent="n9qM-8yhjH1g4-WMNaWI-16">
          <mxGeometry y="164" width="280" height="26" as="geometry" />
        </mxCell>
        <mxCell id="n9qM-8yhjH1g4-WMNaWI-71" style="edgeStyle=orthogonalEdgeStyle;rounded=0;orthogonalLoop=1;jettySize=auto;html=1;entryX=0.25;entryY=1;entryDx=0;entryDy=0;" edge="1" parent="WIyWlLk6GJQsqaUBKTNV-1" source="n9qM-8yhjH1g4-WMNaWI-24" target="n9qM-8yhjH1g4-WMNaWI-16">
          <mxGeometry relative="1" as="geometry" />
        </mxCell>
        <mxCell id="n9qM-8yhjH1g4-WMNaWI-24" value="FinalExam" style="swimlane;fontStyle=2;align=center;verticalAlign=top;childLayout=stackLayout;horizontal=1;startSize=26;horizontalStack=0;resizeParent=1;resizeLast=0;collapsible=1;marginBottom=0;rounded=0;shadow=0;strokeWidth=1;" vertex="1" parent="WIyWlLk6GJQsqaUBKTNV-1">
          <mxGeometry x="-150" y="-90" width="470" height="130" as="geometry">
            <mxRectangle x="230" y="140" width="160" height="26" as="alternateBounds" />
          </mxGeometry>
        </mxCell>
        <mxCell id="n9qM-8yhjH1g4-WMNaWI-28" value="" style="line;html=1;strokeWidth=1;align=left;verticalAlign=middle;spacingTop=-1;spacingLeft=3;spacingRight=3;rotatable=0;labelPosition=right;points=[];portConstraint=eastwest;" vertex="1" parent="n9qM-8yhjH1g4-WMNaWI-24">
          <mxGeometry y="26" width="470" height="8" as="geometry" />
        </mxCell>
        <mxCell id="n9qM-8yhjH1g4-WMNaWI-29" value="+ FinalExam(int examTime, int numOfQuestion) : base(examTime, numOfQuestion)" style="text;align=left;verticalAlign=top;spacingLeft=4;spacingRight=4;overflow=hidden;rotatable=0;points=[[0,0.5],[1,0.5]];portConstraint=eastwest;" vertex="1" parent="n9qM-8yhjH1g4-WMNaWI-24">
          <mxGeometry y="34" width="470" height="26" as="geometry" />
        </mxCell>
        <mxCell id="n9qM-8yhjH1g4-WMNaWI-30" value="+ override Add()" style="text;align=left;verticalAlign=top;spacingLeft=4;spacingRight=4;overflow=hidden;rotatable=0;points=[[0,0.5],[1,0.5]];portConstraint=eastwest;" vertex="1" parent="n9qM-8yhjH1g4-WMNaWI-24">
          <mxGeometry y="60" width="470" height="26" as="geometry" />
        </mxCell>
        <mxCell id="n9qM-8yhjH1g4-WMNaWI-31" value="+ override ShowExam()" style="text;align=left;verticalAlign=top;spacingLeft=4;spacingRight=4;overflow=hidden;rotatable=0;points=[[0,0.5],[1,0.5]];portConstraint=eastwest;" vertex="1" parent="n9qM-8yhjH1g4-WMNaWI-24">
          <mxGeometry y="86" width="470" height="26" as="geometry" />
        </mxCell>
        <mxCell id="n9qM-8yhjH1g4-WMNaWI-70" style="edgeStyle=orthogonalEdgeStyle;rounded=0;orthogonalLoop=1;jettySize=auto;html=1;exitX=0.5;exitY=0;exitDx=0;exitDy=0;entryX=0.75;entryY=1;entryDx=0;entryDy=0;" edge="1" parent="WIyWlLk6GJQsqaUBKTNV-1" source="n9qM-8yhjH1g4-WMNaWI-32" target="n9qM-8yhjH1g4-WMNaWI-16">
          <mxGeometry relative="1" as="geometry" />
        </mxCell>
        <mxCell id="n9qM-8yhjH1g4-WMNaWI-32" value="PracticalExam" style="swimlane;fontStyle=2;align=center;verticalAlign=top;childLayout=stackLayout;horizontal=1;startSize=26;horizontalStack=0;resizeParent=1;resizeLast=0;collapsible=1;marginBottom=0;rounded=0;shadow=0;strokeWidth=1;" vertex="1" parent="WIyWlLk6GJQsqaUBKTNV-1">
          <mxGeometry x="330" y="-90" width="480" height="130" as="geometry">
            <mxRectangle x="230" y="140" width="160" height="26" as="alternateBounds" />
          </mxGeometry>
        </mxCell>
        <mxCell id="n9qM-8yhjH1g4-WMNaWI-36" value="" style="line;html=1;strokeWidth=1;align=left;verticalAlign=middle;spacingTop=-1;spacingLeft=3;spacingRight=3;rotatable=0;labelPosition=right;points=[];portConstraint=eastwest;" vertex="1" parent="n9qM-8yhjH1g4-WMNaWI-32">
          <mxGeometry y="26" width="480" height="8" as="geometry" />
        </mxCell>
        <mxCell id="n9qM-8yhjH1g4-WMNaWI-37" value="+ PracticalExam(int examTime, int numOfQuestion) : base(examTime, numOfQuestion)" style="text;align=left;verticalAlign=top;spacingLeft=4;spacingRight=4;overflow=hidden;rotatable=0;points=[[0,0.5],[1,0.5]];portConstraint=eastwest;" vertex="1" parent="n9qM-8yhjH1g4-WMNaWI-32">
          <mxGeometry y="34" width="480" height="26" as="geometry" />
        </mxCell>
        <mxCell id="n9qM-8yhjH1g4-WMNaWI-38" value="+ override Add()" style="text;align=left;verticalAlign=top;spacingLeft=4;spacingRight=4;overflow=hidden;rotatable=0;points=[[0,0.5],[1,0.5]];portConstraint=eastwest;" vertex="1" parent="n9qM-8yhjH1g4-WMNaWI-32">
          <mxGeometry y="60" width="480" height="26" as="geometry" />
        </mxCell>
        <mxCell id="n9qM-8yhjH1g4-WMNaWI-39" value="+ override ShowExam()" style="text;align=left;verticalAlign=top;spacingLeft=4;spacingRight=4;overflow=hidden;rotatable=0;points=[[0,0.5],[1,0.5]];portConstraint=eastwest;" vertex="1" parent="n9qM-8yhjH1g4-WMNaWI-32">
          <mxGeometry y="86" width="480" height="26" as="geometry" />
        </mxCell>
        <mxCell id="n9qM-8yhjH1g4-WMNaWI-40" value="Question" style="swimlane;fontStyle=2;align=center;verticalAlign=top;childLayout=stackLayout;horizontal=1;startSize=26;horizontalStack=0;resizeParent=1;resizeLast=0;collapsible=1;marginBottom=0;rounded=0;shadow=0;strokeWidth=1;" vertex="1" parent="WIyWlLk6GJQsqaUBKTNV-1">
          <mxGeometry x="120" y="90" width="300" height="230" as="geometry">
            <mxRectangle x="230" y="140" width="160" height="26" as="alternateBounds" />
          </mxGeometry>
        </mxCell>
        <mxCell id="n9qM-8yhjH1g4-WMNaWI-41" value="&lt;&lt;property&gt;&gt;virtual Header: string" style="text;align=left;verticalAlign=top;spacingLeft=4;spacingRight=4;overflow=hidden;rotatable=0;points=[[0,0.5],[1,0.5]];portConstraint=eastwest;" vertex="1" parent="n9qM-8yhjH1g4-WMNaWI-40">
          <mxGeometry y="26" width="300" height="26" as="geometry" />
        </mxCell>
        <mxCell id="n9qM-8yhjH1g4-WMNaWI-42" value="&lt;&lt;property&gt;&gt; Body : string" style="text;align=left;verticalAlign=top;spacingLeft=4;spacingRight=4;overflow=hidden;rotatable=0;points=[[0,0.5],[1,0.5]];portConstraint=eastwest;rounded=0;shadow=0;html=0;" vertex="1" parent="n9qM-8yhjH1g4-WMNaWI-40">
          <mxGeometry y="52" width="300" height="26" as="geometry" />
        </mxCell>
        <mxCell id="n9qM-8yhjH1g4-WMNaWI-48" value="&lt;&lt;property&gt;&gt; Mark: decimal" style="text;align=left;verticalAlign=top;spacingLeft=4;spacingRight=4;overflow=hidden;rotatable=0;points=[[0,0.5],[1,0.5]];portConstraint=eastwest;rounded=0;shadow=0;html=0;" vertex="1" parent="n9qM-8yhjH1g4-WMNaWI-40">
          <mxGeometry y="78" width="300" height="26" as="geometry" />
        </mxCell>
        <mxCell id="n9qM-8yhjH1g4-WMNaWI-43" value="&lt;&lt;property&gt;&gt; Answers : Answer[ ]" style="text;align=left;verticalAlign=top;spacingLeft=4;spacingRight=4;overflow=hidden;rotatable=0;points=[[0,0.5],[1,0.5]];portConstraint=eastwest;rounded=0;shadow=0;html=0;" vertex="1" parent="n9qM-8yhjH1g4-WMNaWI-40">
          <mxGeometry y="104" width="300" height="26" as="geometry" />
        </mxCell>
        <mxCell id="n9qM-8yhjH1g4-WMNaWI-49" value="&lt;&lt;property&gt;&gt; Response: Answer[ ] =new Answer()" style="text;align=left;verticalAlign=top;spacingLeft=4;spacingRight=4;overflow=hidden;rotatable=0;points=[[0,0.5],[1,0.5]];portConstraint=eastwest;rounded=0;shadow=0;html=0;" vertex="1" parent="n9qM-8yhjH1g4-WMNaWI-40">
          <mxGeometry y="130" width="300" height="26" as="geometry" />
        </mxCell>
        <mxCell id="n9qM-8yhjH1g4-WMNaWI-50" value="&lt;&lt;property&gt;&gt; RightAnswer: Answer[ ] =new Answer()" style="text;align=left;verticalAlign=top;spacingLeft=4;spacingRight=4;overflow=hidden;rotatable=0;points=[[0,0.5],[1,0.5]];portConstraint=eastwest;rounded=0;shadow=0;html=0;" vertex="1" parent="n9qM-8yhjH1g4-WMNaWI-40">
          <mxGeometry y="156" width="300" height="26" as="geometry" />
        </mxCell>
        <mxCell id="n9qM-8yhjH1g4-WMNaWI-44" value="" style="line;html=1;strokeWidth=1;align=left;verticalAlign=middle;spacingTop=-1;spacingLeft=3;spacingRight=3;rotatable=0;labelPosition=right;points=[];portConstraint=eastwest;" vertex="1" parent="n9qM-8yhjH1g4-WMNaWI-40">
          <mxGeometry y="182" width="300" height="8" as="geometry" />
        </mxCell>
        <mxCell id="n9qM-8yhjH1g4-WMNaWI-47" value="+ abstract Add()" style="text;align=left;verticalAlign=top;spacingLeft=4;spacingRight=4;overflow=hidden;rotatable=0;points=[[0,0.5],[1,0.5]];portConstraint=eastwest;" vertex="1" parent="n9qM-8yhjH1g4-WMNaWI-40">
          <mxGeometry y="190" width="300" height="26" as="geometry" />
        </mxCell>
        <mxCell id="n9qM-8yhjH1g4-WMNaWI-72" style="edgeStyle=orthogonalEdgeStyle;rounded=0;orthogonalLoop=1;jettySize=auto;html=1;exitX=0.5;exitY=0;exitDx=0;exitDy=0;entryX=0.25;entryY=1;entryDx=0;entryDy=0;" edge="1" parent="WIyWlLk6GJQsqaUBKTNV-1" source="n9qM-8yhjH1g4-WMNaWI-51" target="n9qM-8yhjH1g4-WMNaWI-40">
          <mxGeometry relative="1" as="geometry" />
        </mxCell>
        <mxCell id="n9qM-8yhjH1g4-WMNaWI-51" value="MCQ" style="swimlane;fontStyle=2;align=center;verticalAlign=top;childLayout=stackLayout;horizontal=1;startSize=26;horizontalStack=0;resizeParent=1;resizeLast=0;collapsible=1;marginBottom=0;rounded=0;shadow=0;strokeWidth=1;" vertex="1" parent="WIyWlLk6GJQsqaUBKTNV-1">
          <mxGeometry x="-130" y="360" width="280" height="100" as="geometry">
            <mxRectangle x="230" y="140" width="160" height="26" as="alternateBounds" />
          </mxGeometry>
        </mxCell>
        <mxCell id="n9qM-8yhjH1g4-WMNaWI-55" value="" style="line;html=1;strokeWidth=1;align=left;verticalAlign=middle;spacingTop=-1;spacingLeft=3;spacingRight=3;rotatable=0;labelPosition=right;points=[];portConstraint=eastwest;" vertex="1" parent="n9qM-8yhjH1g4-WMNaWI-51">
          <mxGeometry y="26" width="280" height="8" as="geometry" />
        </mxCell>
        <mxCell id="n9qM-8yhjH1g4-WMNaWI-57" value="+ MCQ()" style="text;align=left;verticalAlign=top;spacingLeft=4;spacingRight=4;overflow=hidden;rotatable=0;points=[[0,0.5],[1,0.5]];portConstraint=eastwest;" vertex="1" parent="n9qM-8yhjH1g4-WMNaWI-51">
          <mxGeometry y="34" width="280" height="26" as="geometry" />
        </mxCell>
        <mxCell id="n9qM-8yhjH1g4-WMNaWI-58" value="+ override Add()" style="text;align=left;verticalAlign=top;spacingLeft=4;spacingRight=4;overflow=hidden;rotatable=0;points=[[0,0.5],[1,0.5]];portConstraint=eastwest;" vertex="1" parent="n9qM-8yhjH1g4-WMNaWI-51">
          <mxGeometry y="60" width="280" height="26" as="geometry" />
        </mxCell>
        <mxCell id="n9qM-8yhjH1g4-WMNaWI-73" style="edgeStyle=orthogonalEdgeStyle;rounded=0;orthogonalLoop=1;jettySize=auto;html=1;entryX=0.5;entryY=1;entryDx=0;entryDy=0;" edge="1" parent="WIyWlLk6GJQsqaUBKTNV-1" source="n9qM-8yhjH1g4-WMNaWI-60" target="n9qM-8yhjH1g4-WMNaWI-40">
          <mxGeometry relative="1" as="geometry" />
        </mxCell>
        <mxCell id="n9qM-8yhjH1g4-WMNaWI-60" value="True_Or_False" style="swimlane;fontStyle=2;align=center;verticalAlign=top;childLayout=stackLayout;horizontal=1;startSize=26;horizontalStack=0;resizeParent=1;resizeLast=0;collapsible=1;marginBottom=0;rounded=0;shadow=0;strokeWidth=1;" vertex="1" parent="WIyWlLk6GJQsqaUBKTNV-1">
          <mxGeometry x="390" y="360" width="280" height="110" as="geometry">
            <mxRectangle x="230" y="140" width="160" height="26" as="alternateBounds" />
          </mxGeometry>
        </mxCell>
        <mxCell id="n9qM-8yhjH1g4-WMNaWI-64" value="" style="line;html=1;strokeWidth=1;align=left;verticalAlign=middle;spacingTop=-1;spacingLeft=3;spacingRight=3;rotatable=0;labelPosition=right;points=[];portConstraint=eastwest;" vertex="1" parent="n9qM-8yhjH1g4-WMNaWI-60">
          <mxGeometry y="26" width="280" height="8" as="geometry" />
        </mxCell>
        <mxCell id="n9qM-8yhjH1g4-WMNaWI-65" value="+ True_Or_False()" style="text;align=left;verticalAlign=top;spacingLeft=4;spacingRight=4;overflow=hidden;rotatable=0;points=[[0,0.5],[1,0.5]];portConstraint=eastwest;" vertex="1" parent="n9qM-8yhjH1g4-WMNaWI-60">
          <mxGeometry y="34" width="280" height="26" as="geometry" />
        </mxCell>
        <mxCell id="n9qM-8yhjH1g4-WMNaWI-67" value="+ override Add()" style="text;align=left;verticalAlign=top;spacingLeft=4;spacingRight=4;overflow=hidden;rotatable=0;points=[[0,0.5],[1,0.5]];portConstraint=eastwest;" vertex="1" parent="n9qM-8yhjH1g4-WMNaWI-60">
          <mxGeometry y="60" width="280" height="26" as="geometry" />
        </mxCell>
      </root>
    </mxGraphModel>
  </diagram>
</mxfile>
